<svg id="All_Logo_Styles" data-name="All Logo Styles" xmlns="http://www.w3.org/2000/svg" viewBox="0 0 3268.88 2453.98"><defs><style>.cls-1,.cls-2{fill:#252525;}.cls-1{stroke:#252525;stroke-miterlimit:10;stroke-width:100px;}.cls-3{fill:#fff;}</style></defs><g id="Dark-DarkText"><path class="cls-1" d="M1947.29,1535.93,634.91,2293.63C375,2443.71,50,2256.1,50,1955.92V440.52c0-300.17,325-487.78,584.92-337.7L1947.29,860.53C2207.25,1010.61,2207.25,1385.84,1947.29,1535.93Z"/><path class="cls-2" d="M1810.28,2204v-50l206.25-248.64,9.52,28.1h-212V1870.6h280.55v50l-205.77,248.64-9.52-28.1h222.44V2204Z"/><path class="cls-2" d="M2228,2142.1h181.47V2204H2151.32V1870.6h252v61.92H2228Zm-5.72-137.65h160.52v60.49H2222.29Z"/><path class="cls-2" d="M2470.92,2204V1870.6h63.83l141.94,235.3h-33.82L2782,1870.6h64.3V2204h-71.92l-1-222.44h14.29L2675.26,2168.3H2641l-113.84-186.72h15.72V2204Z"/><path class="cls-2" d="M2882,2204l148.14-333.42h76.21L3255.89,2204h-81L3052.5,1909.66h31L2961.05,2204Zm74.78-71.44,19.53-58.59h172.43l20,58.59Z"/><path class="cls-2" d="M1811.23,2443.45V2290.9h23.32l66.69,111.36H1889l65.6-111.36H1978l.43,152.55h-27.24V2333h5.45l-55.35,93.27h-12.86L1831.71,2333h6.54v110.49Z"/><path class="cls-2" d="M2084.73,2445.63q-31.17,0-48.92-17.65T2018,2376.76V2290.9h28.34v85q0,23.54,10.13,34.22t28.66,10.68q18.51,0,28.55-10.68t10-34.22v-85h27.9v85.86q0,33.57-17.77,51.22T2084.73,2445.63Z"/><path class="cls-2" d="M2191.3,2443.45V2290.9h28.33v128.58h79.76v24Z"/><path class="cls-2" d="M2338.62,2443.45V2314.87h-50.56v-24h129.45v24H2367v128.58Z"/><path class="cls-2" d="M2438.87,2443.45V2290.9h28.33v152.55Z"/><path class="cls-2" d="M2508.39,2443.45V2290.9h23.31l66.69,111.36h-12.2l65.6-111.36h23.31l.44,152.55H2648.3V2333h5.45l-55.36,93.27h-12.86L2528.87,2333h6.54v110.49Z"/><path class="cls-2" d="M2744.84,2419.48h86.08v24H2716.51V2290.9h111.36v24h-83Zm-2.18-65.16h75.84v23.32h-75.84Z"/><path class="cls-2" d="M2862.52,2443.45V2290.9h66.91q24.41,0,43.26,9.48a70.55,70.55,0,0,1,29.31,26.7q10.45,17.21,10.46,40.09t-10.46,40.1a70.55,70.55,0,0,1-29.31,26.7q-18.86,9.48-43.26,9.48Zm28.33-24h36.83q17.22,0,29.75-6.54a48.68,48.68,0,0,0,19.62-18.31q7.08-11.76,7.08-27.46,0-16.12-7.08-27.67a49.2,49.2,0,0,0-19.62-18.09q-12.53-6.54-29.75-6.54h-36.83Z"/><path class="cls-2" d="M3042.53,2443.45V2290.9h28.33v152.55Z"/><path class="cls-2" d="M3090.47,2443.45l68.65-152.55H3187l68.87,152.55H3226l-58.84-137.51h11.33l-59.06,137.51Zm31.61-35.3,7.84-22.23h82.16l7.63,22.23Z"/><path class="cls-3" d="M1386.91,1529.22s-112.23-81.83-311.12-87.23c4-26.92,21.72-139.79,57.09-262.76C1166,1064,1256.3,828.65,1413,538c-40.19,39.9-154.57,142.85-336.06,173.58C928,736.77,808.73,700.67,754.46,680.4a472.67,472.67,0,0,0,93.86,330.88,214.74,214.74,0,0,1-21.92-63.69,217.69,217.69,0,0,1,7.18-103,399.54,399.54,0,0,0,174,7.06c93.58-17.07,156.76-63.48,185.14-87.29-44.72,122-88.06,256.74-126.55,403.47-25.11,95.71-45.87,187.81-63.06,275.65a844.59,844.59,0,0,0-84.24,9.89c-27.51,4.62-71.76,14-152.92,27.15-3.78-107.68-35.29-241.4-150.91-328-92.26-69.11-223.73-97.46-344.68-61.84-78.09,23-131.2,66.58-159.43,93.79h0a334.75,334.75,0,0,0-77.21,162.9,381.93,381.93,0,0,0-4.87,57.3c0,16.67.1,129.42,77.9,213.29,4.28,4.61,7.89,8.17,10,10.16,0,0,59.77,57.07,144.09,63.93,5.24.42,10.58.64,10.58.64q5.38.22,10.84.22c104.37,0,194.5-61,236.65-149.32q16.58-2.74,33.29-5.33,76.24-11.79,151-19.62c0,1.73.09,3.47.13,5.23,1.53,75.26-6.92,204.63-76.42,359.77,36.92-41.5,95.39-118.75,123.15-229.55,1.61-6.44,15.26-64.28,16.24-141.46q114.87-9.76,225.86-11.16c-13.07,163.61,69.17,307.7,193.76,354.4,130.94,49.08,320-5.16,341.19-112.59C1541,1672.91,1481.33,1587.79,1386.91,1529.22ZM483.08,1506c-.69,2.2-1.77,5.5-3.35,9.56-30.28,2.47-49.91,3.39-75.58-.47-25.11-3.78-55.27-8.73-78.75-32.76a95.86,95.86,0,0,1-15-20.17,90.24,90.24,0,0,1-10.73-42.57c0-3.26.62-38.15,25.78-62.57,30-29.09,79.55-28.61,111.62-11.46C491.47,1374.69,499.34,1453.9,483.08,1506Zm79.69,4.85c-13.57,1.91-24.81,3.48-32.39,4.53a260.29,260.29,0,0,0,12.39-55.83s1.52-13.87,1.55-26.56c0-24-9.46-113.15-82.45-157.68-45.23-27.6-94.19-25.44-102.63-24.94-4.26.24-7.76.61-10.06.88h0c-2.27.27-4.54.59-6.78,1a153.84,153.84,0,0,0-128.64,151.9v.47a153.67,153.67,0,0,0,9,51.56c5.89,14.92,18.72,41.34,45.41,63.81,5.66,4.77,25.08,20.41,59.17,31.07,25.06,7.84,51.84,11,133.5.72-11.52,14.74-31.41,35.81-61.82,50.41C335.62,1632.61,262,1617.91,212.77,1586c-83.33-54.06-101.14-160.61-87.56-234.76,3.43-18.73,16.54-77.62,66.9-126.75,108.74-106.09,275.17-57.81,282.6-55.52,131,40.43,185,156.88,196.44,181.45,6.42,13.84,25.18,56.69,30.79,140.08C635.56,1500.56,566.55,1510.32,562.77,1510.86Z"/></g></svg>